<?xml version="1.0" encoding="UTF-8"?>
<svg width="16px" height="16px" viewBox="0 0 16 16" version="1.1" xmlns="http://www.w3.org/2000/svg" xmlns:xlink="http://www.w3.org/1999/xlink">
    <title>_Icons / 16px - Social  / Instagram</title>
    <g id="Symbols" stroke="none" stroke-width="1" fill="none" fill-rule="evenodd">
        <g id="Footer/Desktop" transform="translate(-697.000000, -421.000000)" fill="#FFFFFF">
            <g id="_Icons-/-16px---Social--/-Instagram" transform="translate(697.000000, 421.000000)">
                <path d="M8.9394776,0.000862411988 C9.81056755,0.00283385992 10.2454535,0.00851049276 10.638443,0.0211525937 L10.8182837,0.0274938708 C10.9680648,0.0332102125 11.120622,0.0400311474 11.2983898,0.0481421718 C12.1498965,0.086979821 12.731445,0.222228838 13.240304,0.420005518 C13.7663747,0.624419212 14.2125155,0.897965827 14.6572907,1.34270931 C15.1020342,1.78748454 15.3755808,2.23362529 15.5800262,2.75969602 C15.7777712,3.26855496 15.9130202,3.8501035 15.9518578,4.70161023 C15.9599689,4.87937795 15.9667898,5.03193517 15.9725061,5.18171661 L15.9788474,5.36155779 C15.9914895,5.75454874 15.9971661,6.18943888 15.9991376,7.06054078 L15.9999506,7.73814786 L15.9999506,7.73814786 L16,8.00001588 C16,8.09054311 15.999984,8.17777136 15.9999506,8.26188009 L15.9991376,8.9394776 C15.9971661,9.81056755 15.9914895,10.2454535 15.9788474,10.638443 L15.9725061,10.8182837 C15.9667898,10.9680648 15.9599689,11.120622 15.9518578,11.2983898 C15.9130202,12.1498965 15.7777712,12.731445 15.5800262,13.240304 C15.3755808,13.7663747 15.1020342,14.2125155 14.6572907,14.6572907 C14.2125155,15.1020342 13.7663747,15.3755808 13.240304,15.5800262 C12.731445,15.7777712 12.1498965,15.9130202 11.2983898,15.9518578 C11.120622,15.9599689 10.9680648,15.9667898 10.8182837,15.9725061 L10.638443,15.9788474 C10.2454535,15.9914895 9.81056755,15.9971661 8.9394776,15.9991376 L8.26188009,15.9999506 L8.26188009,15.9999506 L8.00001588,16 C7.90948732,16 7.8222578,15.999984 7.73814786,15.9999506 L7.06054078,15.9991376 C6.18943888,15.9971661 5.75454874,15.9914895 5.36155779,15.9788474 L5.18171661,15.9725061 C5.03193517,15.9667898 4.87937795,15.9599689 4.70161023,15.9518578 C3.8501035,15.9130202 3.26855496,15.7777712 2.75969602,15.5800262 C2.23362529,15.3755808 1.78748454,15.1020342 1.34270931,14.6572907 C0.897965827,14.2125155 0.624419212,13.7663747 0.420005518,13.240304 C0.222228838,12.731445 0.086979821,12.1498965 0.0481421718,11.2983898 C0.0400311474,11.120622 0.0332102125,10.9680648 0.0274938708,10.8182837 L0.0211525937,10.638443 C0.00851049276,10.2454535 0.00283385992,9.81056755 0.000862411988,8.9394776 L0.000862411988,7.06054078 C0.00283385992,6.18943888 0.00851049276,5.75454874 0.0211525937,5.36155779 L0.0274938708,5.18171661 C0.0332102125,5.03193517 0.0400311474,4.87937795 0.0481421718,4.70161023 C0.086979821,3.8501035 0.222228838,3.26855496 0.420005518,2.75969602 C0.624419212,2.23362529 0.897965827,1.78748454 1.34270931,1.34270931 C1.78748454,0.897965827 2.23362529,0.624419212 2.75969602,0.420005518 C3.26855496,0.222228838 3.8501035,0.086979821 4.70161023,0.0481421718 C4.87937795,0.0400311474 5.03193517,0.0332102125 5.18171661,0.0274938708 L5.36155779,0.0211525937 C5.75454874,0.00851049276 6.18943888,0.00283385992 7.06054078,0.000862411988 Z M8.71760616,1.44186472 L7.28241511,1.44186472 C6.35942324,1.4431575 5.89820907,1.44765776 5.50565107,1.45888823 L5.32791396,1.46456223 C5.15218888,1.47073978 4.97820543,1.47846642 4.7673135,1.4880885 C3.9873214,1.52365528 3.56372745,1.65398211 3.28182899,1.76354048 C2.9084096,1.90866563 2.64191283,2.08202191 2.36198324,2.36198324 C2.08202191,2.64191283 1.90866563,2.9084096 1.76354048,3.28182899 C1.65398211,3.56372745 1.52365528,3.9873214 1.4880885,4.7673135 C1.47846642,4.97820543 1.47073978,5.15218888 1.46456223,5.32791396 L1.45888823,5.50565107 C1.44765776,5.89820907 1.4431575,6.35942324 1.44186472,7.28241511 L1.44186472,8.71760616 C1.4431575,9.64058486 1.44765776,10.101794 1.45888823,10.4943501 L1.46456223,10.6720865 C1.47073978,10.8478111 1.47846642,11.0217946 1.4880885,11.2326865 C1.52365528,12.0126786 1.65398211,12.4362726 1.76354048,12.718171 C1.90866563,13.0915904 2.08205366,13.3580872 2.36198324,13.6380168 C2.64191283,13.9179781 2.9084096,14.0913344 3.28182899,14.2364595 C3.56372745,14.3460179 3.9873214,14.4763447 4.7673135,14.5119115 C4.97818161,14.5215336 5.15214324,14.5292602 5.32785145,14.5354378 L5.50557344,14.5411118 C5.89810277,14.5523422 6.35931623,14.5568425 7.28236562,14.5581353 L8.71765696,14.5581353 C9.64069667,14.5568425 10.1019144,14.5523422 10.4944418,14.5411118 L10.6721624,14.5354378 C10.8478687,14.5292602 11.0218263,14.5215336 11.2326865,14.5119115 C12.0126786,14.4763447 12.4362726,14.3460179 12.718171,14.2364595 C13.0915904,14.0913344 13.3580872,13.9179781 13.6380168,13.6380168 C13.9179781,13.3580872 14.0913344,13.0915904 14.2364595,12.718171 C14.3460179,12.4362726 14.4763447,12.0126786 14.5119115,11.2326865 C14.5215336,11.0217946 14.5292602,10.8478111 14.5354378,10.6720865 L14.5411118,10.4943501 C14.5523422,10.101794 14.5568425,9.64058486 14.5581353,8.71760616 L14.5581353,7.28241511 C14.5568425,6.35942324 14.5523422,5.89820907 14.5411118,5.50565107 L14.5354378,5.32791396 C14.5292602,5.15218888 14.5215336,4.97820543 14.5119115,4.7673135 C14.4763447,3.9873214 14.3460179,3.56372745 14.2364595,3.28182899 C14.0913344,2.9084096 13.9179781,2.64191283 13.6380168,2.36198324 C13.3580872,2.08202191 13.0915904,1.90866563 12.718171,1.76354048 C12.4362726,1.65398211 12.0126786,1.52365528 11.2326865,1.4880885 C11.0217946,1.47846642 10.8478111,1.47073978 10.6720865,1.46456223 L10.4943501,1.45888823 C10.101794,1.44765776 9.64058486,1.4431575 8.71760616,1.44186472 Z M8.00001588,3.89189447 C10.2688586,3.89189447 12.1081055,5.73114137 12.1081055,8.00001588 C12.1081055,10.2688586 10.2688586,12.1081055 8.00001588,12.1081055 C5.73114137,12.1081055 3.89189447,10.2688586 3.89189447,8.00001588 C3.89189447,5.73114137 5.73114137,3.89189447 8.00001588,3.89189447 Z M8.00001588,5.33333333 C9.47276621,5.33333333 10.6666667,6.52723379 10.6666667,8.00001588 C10.6666667,9.47276621 9.47276621,10.6666667 8.00001588,10.6666667 C6.52723379,10.6666667 5.33333333,9.47276621 5.33333333,8.00001588 C5.33333333,6.52723379 6.52723379,5.33333333 8.00001588,5.33333333 Z M12.2704107,2.76957215 C12.8006097,2.76957215 13.2304279,3.19939028 13.2304279,3.7295893 C13.2304279,4.25978831 12.8006097,4.68957469 12.2704107,4.68957469 C11.7402434,4.68957469 11.3104253,4.25978831 11.3104253,3.7295893 C11.3104253,3.19939028 11.7402434,2.76957215 12.2704107,2.76957215 Z" id="Icon"></path>
            </g>
        </g>
    </g>
</svg>