<?xml version="1.0" encoding="UTF-8"?>
<svg width="16px" height="13px" viewBox="0 0 16 13" version="1.1" xmlns="http://www.w3.org/2000/svg" xmlns:xlink="http://www.w3.org/1999/xlink">
    <title>_Icons / 16px - Social  / Twitter 2</title>
    <g id="Symbols" stroke="none" stroke-width="1" fill="none" fill-rule="evenodd">
        <g id="Footer/Desktop" transform="translate(-728.000000, -423.000000)" fill="#FFFFFF">
            <g id="social" transform="translate(697.000000, 421.000000)">
                <g id="_Icons-/-16px---Social--/-Twitter-2" transform="translate(31.000000, 0.000000)">
                    <path d="M5.0260104,15.010004 C11.0636255,15.010004 14.3673469,10.0032013 14.3673469,5.66866747 C14.3673469,5.52781112 14.3673469,5.38695478 14.3609444,5.24609844 C15.0012005,4.78511405 15.5582233,4.20248099 16,3.54301721 C15.4109644,3.80552221 14.7771108,3.97839136 14.1112445,4.06162465 C14.789916,3.65826331 15.3085234,3.01160464 15.5582233,2.24329732 C14.9243697,2.62104842 14.220088,2.88995598 13.4709884,3.03721489 C12.8691477,2.39695878 12.017607,2 11.0764306,2 C9.2645058,2 7.79191677,3.47258904 7.79191677,5.28451381 C7.79191677,5.54061625 7.82392957,5.79031613 7.87515006,6.03361345 C5.14765906,5.89915966 2.727491,4.58663465 1.10764306,2.60184074 C0.825930372,3.08843537 0.665866347,3.65186074 0.665866347,4.25370148 C0.665866347,5.39335734 1.2484994,6.39855942 2.12565026,6.98759504 C1.58783513,6.96838735 1.08203281,6.82112845 0.640256102,6.57783113 C0.640256102,6.59063625 0.640256102,6.60344138 0.640256102,6.62264906 C0.640256102,8.21048419 1.7735094,9.54221689 3.27170868,9.84313725 C2.99639856,9.91996799 2.70828331,9.95838335 2.40736295,9.95838335 C2.19607843,9.95838335 1.99119648,9.93917567 1.79271709,9.9007603 C2.20888355,11.2068828 3.42537015,12.1544618 4.85954382,12.180072 C3.73269308,13.0636255 2.31772709,13.5886355 0.781112445,13.5886355 C0.518607443,13.5886355 0.256102441,13.5758303 0,13.5438175 C1.44697879,14.4657863 3.17567027,15.010004 5.0260104,15.010004" id="Icon"></path>
                </g>
            </g>
        </g>
    </g>
</svg>